<svg width="13" height="14" viewBox="0 0 13 14" fill="none" xmlns="http://www.w3.org/2000/svg">
    <path
        d="M4.73 2.25L5.16 1.14C5.23251 0.952064 5.3601 0.790411 5.52605 0.676212C5.69199 0.562014 5.88856 0.500595 6.09 0.5H6.91C7.11144 0.500595 7.308 0.562014 7.47395 0.676212C7.63989 0.790411 7.76748 0.952064 7.84 1.14L8.27 2.25L9.73 3.09L10.91 2.91C11.1065 2.88333 11.3065 2.91567 11.4845 3.00292C11.6626 3.09017 11.8107 3.22838 11.91 3.4L12.31 4.1C12.4125 4.27435 12.4597 4.47568 12.4454 4.67742C12.4312 4.87916 12.356 5.07183 12.23 5.23L11.5 6.16V7.84L12.25 8.77C12.376 8.92817 12.4512 9.12084 12.4654 9.32258C12.4797 9.52432 12.4325 9.72565 12.33 9.9L11.93 10.6C11.8307 10.7716 11.6826 10.9098 11.5045 10.9971C11.3265 11.0843 11.1265 11.1167 10.93 11.09L9.75 10.91L8.29 11.75L7.86 12.86C7.78748 13.0479 7.65989 13.2096 7.49395 13.3238C7.328 13.438 7.13144 13.4994 6.93 13.5H6.09C5.88856 13.4994 5.69199 13.438 5.52605 13.3238C5.3601 13.2096 5.23251 13.0479 5.16 12.86L4.73 11.75L3.27 10.91L2.09 11.09C1.89351 11.1167 1.69354 11.0843 1.51548 10.9971C1.33742 10.9098 1.18932 10.7716 1.09 10.6L0.689996 9.9C0.587498 9.72565 0.540273 9.52432 0.554556 9.32258C0.568839 9.12084 0.643957 8.92817 0.769996 8.77L1.5 7.84V6.16L0.749996 5.23C0.623957 5.07183 0.548839 4.87916 0.534556 4.67742C0.520273 4.47568 0.567498 4.27435 0.669996 4.1L1.07 3.4C1.16932 3.22838 1.31742 3.09017 1.49548 3.00292C1.67354 2.91567 1.87351 2.88333 2.07 2.91L3.25 3.09L4.73 2.25ZM4.5 7C4.5 7.39556 4.61729 7.78224 4.83706 8.11114C5.05682 8.44004 5.36918 8.69638 5.73463 8.84776C6.10008 8.99913 6.50221 9.03874 6.89018 8.96157C7.27814 8.8844 7.6345 8.69392 7.91421 8.41421C8.19391 8.13451 8.3844 7.77814 8.46157 7.39018C8.53874 7.00222 8.49913 6.60009 8.34776 6.23463C8.19638 5.86918 7.94003 5.55682 7.61114 5.33706C7.28224 5.1173 6.89556 5 6.5 5C5.96956 5 5.46086 5.21071 5.08578 5.58579C4.71071 5.96086 4.5 6.46957 4.5 7V7Z"
        stroke="#ffffff" stroke-linecap="round" stroke-linejoin="round" />
</svg>