<svg width="14" height="13" viewBox="0 0 14 13" fill="none" xmlns="http://www.w3.org/2000/svg">
<path d="M5 5C6.24264 5 7.25 3.99264 7.25 2.75C7.25 1.50736 6.24264 0.5 5 0.5C3.75736 0.5 2.75 1.50736 2.75 2.75C2.75 3.99264 3.75736 5 5 5Z" stroke="#ffffff" stroke-linecap="round" stroke-linejoin="round"/>
<path d="M9.5 12.5H0.5V11.5C0.5 10.3065 0.974106 9.16193 1.81802 8.31802C2.66193 7.47411 3.80653 7 5 7C6.19347 7 7.33807 7.47411 8.18198 8.31802C9.02589 9.16193 9.5 10.3065 9.5 11.5V12.5Z" stroke="#ffffff" stroke-linecap="round" stroke-linejoin="round"/>
<path d="M9 0.5C9.59674 0.5 10.169 0.737053 10.591 1.15901C11.0129 1.58097 11.25 2.15326 11.25 2.75C11.25 3.34674 11.0129 3.91903 10.591 4.34099C10.169 4.76295 9.59674 5 9 5" stroke="#ffffff" stroke-linecap="round" stroke-linejoin="round"/>
<path d="M10.6 7.19C11.4518 7.51405 12.1852 8.08911 12.703 8.83909C13.2209 9.58907 13.4988 10.4786 13.5 11.39V12.5H12" stroke="#ffffff" stroke-linecap="round" stroke-linejoin="round"/>
</svg>
