<svg width="96" height="96" viewBox="0 0 96 96" fill="none" xmlns="http://www.w3.org/2000/svg">
    <g filter="url(#filter0_d_102_30)">
    <path d="M78.0418 56.365C78.0418 56.365 73.1451 63.299 68.3765 64.6672C62.6291 66.3162 57.3271 60.7661 57.3271 60.7661C57.3271 60.7661 60.5656 54.8544 66.7281 53.5451C71.4685 52.538 78.0418 56.365 78.0418 56.365Z" fill="#64AC1D"/>
    <path fill-rule="evenodd" clip-rule="evenodd" d="M79.6755 57.5186L78.0418 56.3649L79.0481 54.6365C79.5328 54.9187 79.8767 55.3915 79.996 55.9395C80.1153 56.4875 79.999 57.0605 79.6755 57.5186ZM76.2374 55.4449C77.3432 55.9582 78.0418 56.3649 78.0418 56.3649C78.0418 56.3649 77.5803 57.0184 76.8026 57.9638C75.0472 60.0978 71.6811 63.7189 68.3765 64.6671C62.6291 66.3161 57.3271 60.766 57.3271 60.766C57.3271 60.766 60.5656 54.8543 66.7281 53.545C69.9232 52.8662 73.9509 54.3835 76.2374 55.4449ZM57.3271 60.766C55.5731 59.8051 55.5734 59.8045 55.5738 59.8038L55.5746 59.8024L55.5763 59.7991L55.5809 59.791L55.5935 59.7683C55.6036 59.7504 55.617 59.7268 55.6337 59.698C55.6669 59.6405 55.7134 59.5618 55.7729 59.4647C55.8918 59.2706 56.0636 59.0017 56.2878 58.6795C56.7349 58.0369 57.3981 57.1714 58.2757 56.2596C60.0148 54.4526 62.7016 52.3559 66.3124 51.5887C69.2681 50.9607 72.5533 51.8457 74.8592 52.7026C76.0588 53.1483 77.0945 53.6258 77.8307 53.9916C78.1999 54.1751 78.4969 54.3321 78.7048 54.445C78.8089 54.5016 78.8909 54.5472 78.9487 54.5798C78.9776 54.5961 79.0006 54.6092 79.0172 54.6187L79.0374 54.6303L79.0439 54.6341L79.0481 54.6365C79.0485 54.6367 79.0481 54.6365 78.0418 56.3649C79.6755 57.5186 79.6757 57.5183 79.6755 57.5186L79.6729 57.5222L79.6686 57.5284L79.6545 57.5481C79.6427 57.5645 79.6263 57.5874 79.6053 57.6164C79.5634 57.6743 79.5032 57.7566 79.426 57.8602C79.2718 58.0673 79.0491 58.3602 78.7679 58.714C78.2071 59.4198 77.4057 60.3777 76.4432 61.3848C74.5962 63.3172 71.8642 65.7471 68.9281 66.5895C65.2975 67.6312 61.9447 66.3664 59.6957 65.0665C58.547 64.4025 57.6081 63.6859 56.9566 63.1368C56.6291 62.8608 56.3697 62.6234 56.1879 62.4505C56.097 62.364 56.0252 62.2934 55.9737 62.2419C55.9479 62.2162 55.9272 62.1951 55.9117 62.1793L55.8924 62.1594L55.8857 62.1524L55.8831 62.1497L55.882 62.1485C55.8814 62.148 55.881 62.1475 57.3271 60.766ZM55.5731 59.8051L57.3271 60.766L55.881 62.1475C55.2788 61.5172 55.1543 60.5696 55.5731 59.8051Z" fill="#156319"/>
    <path d="M75.4634 69.8476C75.4634 69.8476 66.3949 73.7768 60.8247 72.2492C54.1111 70.4081 52.2004 61.6783 52.2004 61.6783C52.2004 61.6783 59.0009 57.7614 65.9215 60.1917C71.245 62.0612 75.4634 69.8476 75.4634 69.8476Z" fill="#7CD623"/>
    <path fill-rule="evenodd" clip-rule="evenodd" d="M76.2585 71.6828L75.4634 69.8476L77.2219 68.8949C77.4891 69.3881 77.5369 69.9708 77.3537 70.5009C77.1705 71.031 76.7732 71.4598 76.2585 71.6828ZM74.4113 68.1195C75.0848 69.1488 75.4634 69.8476 75.4634 69.8476C75.4634 69.8476 74.7407 70.1607 73.5781 70.5758C70.6222 71.6311 64.8225 73.3456 60.8247 72.2492C54.1111 70.4081 52.2004 61.6783 52.2004 61.6783C52.2004 61.6783 59.0009 57.7614 65.9215 60.1917C69.6502 61.5011 72.8366 65.7132 74.4113 68.1195ZM52.2004 61.6783C51.2022 59.9452 51.2028 59.9449 51.2035 59.9445L51.2049 59.9437L51.2083 59.9417L51.2169 59.9368L51.2416 59.9229C51.2614 59.9118 51.2878 59.8971 51.3207 59.8792C51.3863 59.8434 51.4776 59.7946 51.5931 59.7353C51.8237 59.617 52.1516 59.4564 52.5633 59.2747C53.3846 58.912 54.5518 58.4594 55.9565 58.0896C58.7437 57.3557 62.613 56.9101 66.5842 58.3047C69.8107 59.4378 72.4927 62.243 74.259 64.482C75.173 65.6406 75.907 66.7327 76.4129 67.5351C76.6666 67.9375 76.8648 68.2699 77.0013 68.5051C77.0697 68.6228 77.1227 68.7164 77.1597 68.7824C77.1782 68.8155 77.1927 68.8416 77.2031 68.8605L77.2156 68.8833L77.2195 68.8906L77.2219 68.8949C77.2222 68.8954 77.2219 68.8949 75.4634 69.8476C76.2585 71.6828 76.2589 71.6826 76.2585 71.6828L76.2542 71.6846L76.2466 71.6879L76.2216 71.6986C76.2006 71.7076 76.171 71.7201 76.1332 71.736C76.0577 71.7676 75.9494 71.8124 75.8113 71.8682C75.5353 71.9795 75.1397 72.1347 74.6494 72.3149C73.6711 72.6745 72.3038 73.1383 70.7489 73.5536C67.7481 74.3549 63.6346 75.0937 60.2957 74.178C56.1796 73.0492 53.6698 69.8521 52.2395 67.2316C51.5109 65.8968 51.0185 64.6343 50.7076 63.7068C50.5514 63.241 50.4392 62.8542 50.3647 62.5779C50.3274 62.4396 50.2994 62.3285 50.28 62.2487C50.2703 62.2087 50.2627 62.1765 50.2572 62.1526L50.2505 62.1229L50.2482 62.1128L50.2473 62.109L50.247 62.1073C50.2468 62.1066 50.2467 62.1059 52.2004 61.6783ZM51.2022 59.9452L52.2004 61.6783L50.2467 62.1059C50.0603 61.2544 50.4469 60.3803 51.2022 59.9452Z" fill="#156319"/>
    <path d="M60.521 70.6994C64.7858 72.1971 72.478 69.5548 72.478 69.5548C64.6662 64.2631 56.9431 63.9248 54.1919 64.0204C54.1919 64.0204 56.2561 69.2017 60.521 70.6994Z" fill="#6FC21C"/>
    <path d="M53.7753 69.71C68.5 61 66.1999 45.4135 59.5792 33.9306L17.9959 57.9061C24.6166 69.389 38.0703 79 53.7753 69.71Z" fill="#E54567"/>
    <path fill-rule="evenodd" clip-rule="evenodd" d="M58.5803 32.198C59.5372 31.6462 60.7601 31.9747 61.3119 32.9316C64.7443 38.8849 67.1509 46.0507 66.6771 52.9963C66.1951 60.0629 62.7323 66.7354 54.7936 71.4314C46.392 76.4012 38.4271 76.3661 31.6813 73.4319C25.0319 70.5397 19.7244 64.9081 16.2633 58.9051C15.7115 57.9482 16.04 56.7252 16.9969 56.1735L58.5803 32.198ZM19.0399 59.6128C25.9679 70.3031 38.8558 78.5354 53.7753 69.71C67.7625 61.4362 66.3876 46.9575 60.5399 35.6854C60.2315 35.0911 59.9108 34.5057 59.5792 33.9306L17.9959 57.9061C18.327 58.4804 18.6752 59.05 19.0399 59.6128Z" fill="#6C3211"/>
    <path fill-rule="evenodd" clip-rule="evenodd" d="M59.5792 33.9307C66.1999 45.4136 68.5 61.0001 53.7753 69.7101C46.3899 74.0788 39.5023 74.2677 33.589 72.0476C37.6085 72.6132 42.0314 71.8312 46.6893 69.0759C59.0952 61.7375 57.1573 48.6054 51.5792 38.9307L18.1648 58.1963C18.108 58.0997 18.0517 58.003 17.9959 57.9062L59.5792 33.9307Z" fill="#DA2249"/>
    <path d="M60.6015 56.0033C60.1533 57.0129 58.9716 57.468 57.9621 57.0198C56.9525 56.5716 56.4974 55.3899 56.9456 54.3803C57.3938 53.3708 58.5755 52.9157 59.5851 53.3639C60.5946 53.812 61.0497 54.9938 60.6015 56.0033Z" fill="#AA021D"/>
    <path d="M59.3249 49.6566C58.9888 50.4138 58.1025 50.7551 57.3453 50.4189C56.5882 50.0828 56.2468 49.1965 56.583 48.4393C56.9191 47.6822 57.8054 47.3408 58.5626 47.677C59.3197 48.0131 59.6611 48.8994 59.3249 49.6566Z" fill="#AA021D"/>
    <path d="M57.7613 62.4012C57.3131 63.4107 56.1313 63.8658 55.1218 63.4176C54.1122 62.9695 53.6571 61.7877 54.1053 60.7782C54.5535 59.7686 55.7352 59.3135 56.7448 59.7617C57.7543 60.2099 58.2094 61.3916 57.7613 62.4012Z" fill="#AA021D"/>
    <path d="M53.9004 56.3107C53.4522 57.3203 52.2704 57.7754 51.2609 57.3272C50.2513 56.879 49.7962 55.6973 50.2444 54.6877C50.6926 53.6782 51.8743 53.2231 52.8839 53.6712C53.8934 54.1194 54.3485 55.3011 53.9004 56.3107Z" fill="#AA021D"/>
    <path d="M51.3506 66.5883C51.0144 67.3455 50.1281 67.6868 49.371 67.3507C48.6138 67.0146 48.2725 66.1283 48.6086 65.3711C48.9447 64.6139 49.831 64.2726 50.5882 64.6087C51.3454 64.9449 51.6867 65.8312 51.3506 66.5883Z" fill="#AA021D"/>
    <path d="M59.5793 33.9306C61.7861 37.7582 54.2664 46.2283 42.7835 52.8489C31.3006 59.4696 20.2028 61.7338 17.9959 57.9061C15.789 54.0785 23.3087 45.6085 34.7917 38.9878C46.2746 32.3671 57.3724 30.103 59.5793 33.9306Z" fill="#F499CA"/>
    <path fill-rule="evenodd" clip-rule="evenodd" d="M57.8107 43.6702C54.5936 47.2939 49.6583 51.1938 43.7825 54.5816C37.9066 57.9694 32.0589 60.2866 27.311 61.2553C24.9479 61.7374 22.7432 61.9094 20.8974 61.641C19.08 61.3766 17.2523 60.6205 16.2633 58.9051C15.2743 57.1898 15.5356 55.2292 16.2174 53.5239C16.9098 51.792 18.1633 49.9701 19.7645 48.1666C22.9816 44.5429 27.9168 40.643 33.7927 37.2552C39.6685 33.8674 45.5163 31.5501 50.2642 30.5815C52.6273 30.0993 54.832 29.9274 56.6778 30.1958C58.4952 30.4601 60.3229 31.2163 61.3119 32.9316C62.3009 34.647 62.0396 36.6076 61.3578 38.3128C60.6653 40.0448 59.4119 41.8666 57.8107 43.6702ZM42.7835 52.8489C54.2664 46.2283 61.7861 37.7583 59.5792 33.9306C57.3724 30.103 46.2746 32.3672 34.7917 38.9878C23.3087 45.6085 15.789 54.0785 17.9959 57.9062C20.2028 61.7338 31.3006 59.4696 42.7835 52.8489Z" fill="#8C4922"/>
    <path fill-rule="evenodd" clip-rule="evenodd" d="M54 34.5001C54 35.6046 53.1046 36.5001 52 36.5001C51.7054 36.5001 51.5528 36.5317 51.3479 36.5781C51.3275 36.5827 51.3059 36.5877 51.283 36.5929C51.017 36.6543 50.5811 36.7548 50 36.7548C48.8954 36.7548 48 35.8594 48 34.7548C48 33.6502 48.8954 32.7548 50 32.7548C50.1188 32.7548 50.159 32.746 50.4646 32.6768C50.8222 32.5958 51.2946 32.5001 52 32.5001C53.1046 32.5001 54 33.3955 54 34.5001Z" fill="#E54567"/>
    <path d="M56.2239 37.5181C57.7107 40.0968 51.3612 46.5431 42.0418 51.9163C32.7225 57.2895 23.9624 59.5549 22.4756 56.9762C20.9888 54.3975 27.3383 47.9512 36.6577 42.5779C45.977 37.2047 54.7371 34.9393 56.2239 37.5181Z" fill="#F5E3F5"/>
    <path fill-rule="evenodd" clip-rule="evenodd" d="M33.6053 56.0171C29.6133 55.8636 26.3574 54.3981 24.7429 51.6428C22.7117 53.8991 21.8111 55.8239 22.4756 56.9763C23.4937 58.7421 27.9221 58.2365 33.6053 56.0171Z" fill="#F067C2"/>
    <path fill-rule="evenodd" clip-rule="evenodd" d="M27.0618 63.334C27.9349 62.6575 29.1912 62.8168 29.8678 63.6899C30.0482 63.9228 30.1666 64.0241 30.3288 64.1577C30.3449 64.1709 30.3621 64.185 30.3803 64.1998C30.5917 64.3725 30.9381 64.6555 31.2941 65.1149C31.9706 65.988 31.8113 67.2443 30.9381 67.9208C30.065 68.5974 28.8088 68.438 28.1322 67.5649C28.0594 67.471 28.0278 67.4446 27.786 67.2454C27.5029 67.0123 27.1379 66.6976 26.7059 66.1399C26.0293 65.2668 26.1887 64.0105 27.0618 63.334Z" fill="#F9A9C4"/>
    </g>
    <defs>
    <filter id="filter0_d_102_30" x="0" y="0" width="100" height="100" filterUnits="userSpaceOnUse" color-interpolation-filters="sRGB">
    <feFlood flood-opacity="0" result="BackgroundImageFix"/>
    <feColorMatrix in="SourceAlpha" type="matrix" values="0 0 0 0 0 0 0 0 0 0 0 0 0 0 0 0 0 0 127 0" result="hardAlpha"/>
    <feOffset dx="4" dy="4"/>
    <feColorMatrix type="matrix" values="0 0 0 0 0 0 0 0 0 0 0 0 0 0 0 0 0 0 0.2 0"/>
    <feBlend mode="normal" in2="BackgroundImageFix" result="effect1_dropShadow_102_30"/>
    <feBlend mode="normal" in="SourceGraphic" in2="effect1_dropShadow_102_30" result="shape"/>
    </filter>
    </defs>
    </svg>
    