<svg width="15" height="14" viewBox="0 0 15 14" fill="none" xmlns="http://www.w3.org/2000/svg">
    <path
        d="M5.51999 12.24L1.01999 13.5L2.27999 9L10.52 0.799998C10.6131 0.704752 10.7243 0.629073 10.8471 0.577406C10.9699 0.525738 11.1018 0.499123 11.235 0.499123C11.3682 0.499123 11.5001 0.525738 11.6229 0.577406C11.7456 0.629073 11.8569 0.704752 11.95 0.799998L13.72 2.58C13.8137 2.67296 13.8881 2.78356 13.9389 2.90542C13.9896 3.02728 14.0158 3.15799 14.0158 3.29C14.0158 3.42201 13.9896 3.55272 13.9389 3.67457C13.8881 3.79643 13.8137 3.90704 13.72 4L5.51999 12.24Z"
        stroke="#000001" stroke-linecap="round" stroke-linejoin="round" />
</svg>