<svg width="14" height="14" viewBox="0 0 14 14" fill="none" xmlns="http://www.w3.org/2000/svg">
    <g clip-path="url(#clip0_74_5009)">
        <path
            d="M13.19 3.05C13.386 2.8516 13.496 2.58392 13.496 2.305C13.496 2.02609 13.386 1.75841 13.19 1.56L12.44 0.810004C12.2441 0.628677 11.9869 0.52795 11.72 0.52795C11.453 0.52795 11.1959 0.628677 11 0.810004L6.99999 4.76L3.04999 0.810004C2.85158 0.613974 2.5839 0.504044 2.30499 0.504044C2.02607 0.504044 1.7584 0.613974 1.55999 0.810004L0.809989 1.56C0.613959 1.75841 0.504028 2.02609 0.504028 2.305C0.504028 2.58392 0.613959 2.8516 0.809989 3.05L4.80999 7.05L0.809989 11C0.613959 11.1984 0.504028 11.4661 0.504028 11.745C0.504028 12.0239 0.613959 12.2916 0.809989 12.49L1.55999 13.24C1.7584 13.436 2.02607 13.546 2.30499 13.546C2.5839 13.546 2.85158 13.436 3.04999 13.24L6.99999 9.24L11 13.19C11.1984 13.386 11.4661 13.496 11.745 13.496C12.0239 13.496 12.2916 13.386 12.49 13.19L13.24 12.44C13.436 12.2416 13.5459 11.9739 13.5459 11.695C13.5459 11.4161 13.436 11.1484 13.24 10.95L9.23999 7L13.19 3.05Z"
            stroke="#000001" stroke-linecap="round" stroke-linejoin="round" />
    </g>
    <defs>
        <clipPath id="clip0_74_5009">
            <rect width="14" height="14" fill="white" />
        </clipPath>
    </defs>
</svg>
    